<svg xmlns="http://www.w3.org/2000/svg" width="1024" height="1024" viewBox="0 0 1024 1024" role="img" aria-labelledby="title desc">
  <title id="title">toni.asia mark</title>
  <desc id="desc">A circular command-route symbol with a negative-space T for toni.asia.</desc>
  <defs>
    <style>
      .graphite{fill:#151515}
      .ivory{fill:#faf9f6}
      .blue{fill:#4285f4}
      .red{fill:#ea4335}
      .yellow{fill:#fbbc05}
      .green{fill:#34a853}
      .amber{fill:#d97706}
    </style>
  </defs>
  <rect class="ivory" width="1024" height="1024" rx="220"/>
  <circle class="graphite" cx="512" cy="512" r="340"/>
  <path class="blue" d="M512 124a388 388 0 0 1 301 143l-97 84a260 260 0 0 0-204-96V124Z"/>
  <path class="red" d="M813 267a388 388 0 0 1 84 245H769a260 260 0 0 0-53-161l97-84Z"/>
  <path class="yellow" d="M897 512a388 388 0 0 1-130 289l-83-98a260 260 0 0 0 85-191h128Z"/>
  <path class="green" d="M767 801a388 388 0 0 1-255 99V772a260 260 0 0 0 172-69l83 98Z"/>
  <path class="amber" d="M512 900a388 388 0 0 1 0-776v131a260 260 0 0 0 0 517v128Z"/>
  <path class="ivory" d="M320 336h384v116H570v286H454V452H320V336Z"/>
  <circle class="ivory" cx="512" cy="512" r="76"/>
  <path class="graphite" d="M494 460h108v42h-66v156h-42V460Z"/>
  <circle class="blue" cx="304" cy="720" r="34"/>
  <circle class="red" cx="768" cy="304" r="28"/>
</svg>
